# xmcd
#
# Track frame offsets: 
#        150
#        13298
#        24217
#        37714
#        54151
#        79661
#        93559
#        103328
#        123580
#        145566
#        160959
#
# Disc length: 2361 seconds
#
# Revision: 4
# Processed by: cddbd v1.5.2PL0 Copyright (c) Steve Scherf et al.
# Submitted via: ExactAudioCopy v1.1
#
DISCID=8009370b
DTITLE=Otis Rush - Mourning In The Morning
DYEAR=1969
DGENRE=Blues
TTITLE0=Me (stereo)
TTITLE1=Working Man (stereo)
TTITLE2=You're Killing My Love (stereo)
TTITLE3=Feel So Bad (stereo)
TTITLE4=Gambler's Blues (stereo)
TTITLE5=Baby, I Love You (stereo)
TTITLE6=My Old Lady (stereo)
TTITLE7=My Love Will Never Die (stereo)
TTITLE8=Reap What You Sow (stereo)
TTITLE9=It Takes Time (stereo)
TTITLE10=Can't Wait No Longer (stereo)
EXTD=
EXTT0=
EXTT1=
EXTT2=
EXTT3=
EXTT4=
EXTT5=
EXTT6=
EXTT7=
EXTT8=
EXTT9=
EXTT10=
PLAYORDER=
